<svg xmlns="http://www.w3.org/2000/svg" viewBox="0 0 400 400" fill="none">
  <defs>
    <linearGradient id="g" x1="0" y1="0" x2="1" y2="1">
      <stop offset="0%" stop-color="#2E5D5A"/>
      <stop offset="100%" stop-color="#6fa59f"/>
    </linearGradient>
  </defs>
  <rect x="120" y="60" width="160" height="280" rx="28" fill="url(#g)" stroke="#1a3d3a" stroke-width="2"/>
  <rect x="135" y="90" width="130" height="230" rx="6" fill="#fdfaf4"/>
  <!-- Status card -->
  <rect x="150" y="110" width="100" height="40" rx="8" fill="#2E5D5A"/>
  <rect x="160" y="124" width="40" height="6" rx="3" fill="#fff" opacity="0.6"/>
  <rect x="160" y="134" width="60" height="8" rx="4" fill="#fff"/>
  <!-- Tabs icons -->
  <circle cx="170" cy="180" r="22" fill="#e8f0ee"/>
  <rect x="163" y="173" width="14" height="14" rx="3" stroke="#2E5D5A" stroke-width="2"/>
  <circle cx="230" cy="180" r="22" fill="#e8f0ee"/>
  <path d="M222 180l5 5 10-10" stroke="#2E5D5A" stroke-width="2.5" stroke-linecap="round" stroke-linejoin="round" fill="none"/>
  <circle cx="170" cy="230" r="22" fill="#e8f0ee"/>
  <path d="M163 223l14 0M163 230l10 0M163 237l14 0" stroke="#2E5D5A" stroke-width="2.2" stroke-linecap="round"/>
  <circle cx="230" cy="230" r="22" fill="#e8f0ee"/>
  <path d="M221 224l6 4 0 10M227 228c0 -2.8 2.2-5 5-5s5 2.2 5 5" stroke="#2E5D5A" stroke-width="2.2" stroke-linecap="round" fill="none"/>
  <!-- Bottom nav -->
  <rect x="135" y="285" width="130" height="35" fill="#f8f4eb"/>
  <circle cx="156" cy="302" r="3" fill="#2E5D5A"/>
  <circle cx="183" cy="302" r="3" fill="#999"/>
  <circle cx="210" cy="302" r="3" fill="#999"/>
  <circle cx="237" cy="302" r="3" fill="#999"/>
  <!-- Home indicator -->
  <rect x="180" y="330" width="40" height="4" rx="2" fill="#1a3d3a"/>
  <!-- Notch -->
  <rect x="180" y="70" width="40" height="6" rx="3" fill="#1a3d3a"/>
</svg>
